<svg width="540" height="360" viewBox="0 0 540 360" fill="none" xmlns="http://www.w3.org/2000/svg">
  <rect width="540" height="360" rx="24" fill="#EEF4FF"/>
  <rect x="28" y="28" width="484" height="304" rx="20" fill="#FFFFFF" stroke="#B7CCF8" stroke-width="4"/>
  <rect x="58" y="56" width="220" height="18" rx="9" fill="#9DB7F3"/>
  <rect x="58" y="88" width="150" height="12" rx="6" fill="#CDD9F7"/>
  <rect x="58" y="122" width="180" height="144" rx="18" fill="#D7E4FF"/>
  <path d="M88 238L128 194L164 224L212 168L248 214" stroke="#6B8FE6" stroke-width="10" stroke-linecap="round" stroke-linejoin="round"/>
  <rect x="304" y="120" width="170" height="22" rx="11" fill="#88A7F0"/>
  <rect x="304" y="158" width="148" height="16" rx="8" fill="#D7E3FF"/>
  <rect x="304" y="186" width="160" height="16" rx="8" fill="#E5EDFF"/>
  <rect x="304" y="214" width="132" height="16" rx="8" fill="#D7E3FF"/>
  <rect x="304" y="250" width="118" height="34" rx="17" fill="#6B8FE6"/>
  <path d="M348 267H378" stroke="#FFFFFF" stroke-width="6" stroke-linecap="round"/>
  <path d="M363 252V282" stroke="#FFFFFF" stroke-width="6" stroke-linecap="round"/>
</svg>
