<svg width="540" height="360" viewBox="0 0 540 360" fill="none" xmlns="http://www.w3.org/2000/svg">
  <rect width="540" height="360" rx="24" fill="#FFF6ED"/>
  <rect x="28" y="28" width="484" height="304" rx="20" fill="#FFFFFF" stroke="#E3C7A9" stroke-width="4"/>
  <rect x="58" y="56" width="206" height="18" rx="9" fill="#D79C63"/>
  <rect x="58" y="88" width="138" height="12" rx="6" fill="#F0D6BD"/>
  <circle cx="135" cy="192" r="62" fill="#F9E3CF"/>
  <path d="M135 154C121.193 154 110 165.193 110 179C110 190.236 117.063 199.82 127.004 203.498V214H143.004V203.498C152.945 199.82 160.008 190.236 160.008 179C160.008 165.193 148.815 154 135.008 154H135Z" fill="#C78655"/>
  <rect x="224" y="138" width="228" height="20" rx="10" fill="#E1B385"/>
  <rect x="224" y="172" width="194" height="16" rx="8" fill="#F2DDC7"/>
  <rect x="224" y="200" width="176" height="16" rx="8" fill="#F7EBDD"/>
  <rect x="224" y="228" width="210" height="16" rx="8" fill="#F2DDC7"/>
  <rect x="224" y="258" width="132" height="12" rx="6" fill="#D79C63"/>
</svg>
