<svg width="320" height="400" viewBox="0 0 320 400" fill="none" xmlns="http://www.w3.org/2000/svg">
  <rect width="320" height="400" rx="28" fill="#FFF8EF"/>
  <rect x="34" y="28" width="252" height="344" rx="24" fill="#FFFFFF"/>
  <circle cx="160" cy="138" r="60" fill="#FFE2B9"/>
  <path d="M160 86C142.327 86 128 100.327 128 118C128 132.346 137.449 144.484 150.468 148.53C151.507 148.853 152.2 149.812 152.2 150.901V163.8H167.8V150.901C167.8 149.812 168.493 148.853 169.532 148.53C182.551 144.484 192 132.346 192 118C192 100.327 177.673 86 160 86Z" fill="#9B6C4F"/>
  <path d="M96 294C96 248.712 132.712 212 178 212H142C187.288 212 224 248.712 224 294V310H96V294Z" fill="#D78B5D"/>
  <rect x="76" y="324" width="168" height="16" rx="8" fill="#F8E7D3"/>
  <rect x="98" y="348" width="124" height="12" rx="6" fill="#FBF1E6"/>
  <rect x="88" y="48" width="146" height="12" rx="6" fill="#E7D1BC"/>
  <rect x="88" y="68" width="108" height="10" rx="5" fill="#F1E3D5"/>
</svg>
