<svg width="18" height="18" viewBox="0 0 18 18" fill="none" xmlns="http://www.w3.org/2000/svg">
  <path d="M9 1.5C4.857 1.5 1.5 4.857 1.5 9C1.5 12.315 3.649 15.127 6.628 16.119C7.003 16.184 7.141 15.959 7.141 15.766C7.141 15.59 7.135 15.027 7.132 14.431C5.045 14.884 4.603 13.425 4.603 13.425C4.261 12.556 3.767 12.325 3.767 12.325C3.083 11.858 3.819 11.867 3.819 11.867C4.574 11.92 4.971 12.642 4.971 12.642C5.643 13.793 6.734 13.46 7.164 13.268C7.232 12.782 7.427 12.451 7.643 12.263C5.978 12.073 4.227 11.43 4.227 8.557C4.227 7.739 4.519 7.071 4.999 6.549C4.922 6.36 4.664 5.597 5.072 4.564C5.072 4.564 5.703 4.362 7.139 5.334C7.738 5.168 8.38 5.085 9.022 5.083C9.664 5.085 10.306 5.168 10.906 5.334C12.341 4.362 12.971 4.564 12.971 4.564C13.38 5.597 13.122 6.36 13.046 6.549C13.527 7.071 13.818 7.739 13.818 8.557C13.818 11.437 12.064 12.071 10.395 12.257C10.667 12.492 10.909 12.953 10.909 13.661C10.909 14.677 10.901 15.496 10.901 15.766C10.901 15.961 11.036 16.188 11.417 16.118C14.394 15.124 16.5 12.314 16.5 9C16.5 4.857 13.143 1.5 9 1.5Z" fill="#111111"/>
</svg>
