<svg width="18" height="18" viewBox="0 0 18 18" fill="none" xmlns="http://www.w3.org/2000/svg">
  <path d="M7.379 2.25C4.008 2.25 1.5 4.454 1.5 7.18C1.5 8.752 2.361 10.123 3.797 11.026L3.336 12.71C3.27 12.952 3.527 13.154 3.747 13.039L5.861 11.928C6.352 12.049 6.858 12.11 7.379 12.11C10.75 12.11 13.258 9.906 13.258 7.18C13.258 4.454 10.75 2.25 7.379 2.25Z" fill="#111111"/>
  <path d="M11.926 6.837C9.386 6.837 7.434 8.497 7.434 10.63C7.434 12.766 9.386 14.423 11.926 14.423C12.336 14.423 12.736 14.379 13.118 14.292L14.743 15.166C14.947 15.276 15.182 15.09 15.123 14.864L14.771 13.519C15.811 12.792 16.422 11.75 16.422 10.63C16.422 8.497 14.466 6.837 11.926 6.837Z" fill="#111111"/>
  <circle cx="5.588" cy="6.671" r="0.804" fill="white"/>
  <circle cx="8.919" cy="6.671" r="0.804" fill="white"/>
  <circle cx="10.565" cy="10.378" r="0.713" fill="white"/>
  <circle cx="13.286" cy="10.378" r="0.713" fill="white"/>
</svg>
